<svg width="164" height="48" viewBox="0 0 164 48" fill="none" xmlns="http://www.w3.org/2000/svg">
<path d="M24 1.2C11.4326 1.2 1.19995 11.4235 1.19995 24C1.19995 36.5765 11.4326 46.8 24 46.8C36.5765 46.8 46.8 36.5765 46.8 24C46.8 11.4235 36.5765 1.2 24 1.2ZM36.5947 26.8272C36.5947 27.3288 36.1843 27.7392 35.6827 27.7392H27.7392V35.6827C27.7392 36.1844 27.3288 36.5947 26.8272 36.5947H21.1728C20.6712 36.5947 20.2608 36.1844 20.2608 35.6827V27.7392H12.3264C11.8156 27.7392 11.4144 27.3288 11.4144 26.8272V21.1728C11.4144 20.6712 11.8156 20.2608 12.3264 20.2608H20.2608V12.3173C20.2608 11.8157 20.6712 11.4053 21.1728 11.4053H26.8272C27.3288 11.4053 27.7392 11.8157 27.7392 12.3173V20.2608H35.6827C36.1843 20.2608 36.5947 20.6712 36.5947 21.1728V26.8272Z" fill="#176AE5"/>
<path d="M66.112 37V13.16H75.264C76.9067 13.16 78.3573 13.448 79.616 14.024C80.896 14.6 81.8987 15.4533 82.624 16.584C83.3493 17.7147 83.712 19.112 83.712 20.776C83.712 22.3973 83.3387 23.7733 82.592 24.904C81.8667 26.0347 80.864 26.8987 79.584 27.496C78.3253 28.072 76.8853 28.36 75.264 28.36H71.072V37H66.112ZM71.072 24.04H75.296C76 24.04 76.608 23.9013 77.12 23.624C77.632 23.3467 78.0267 22.9627 78.304 22.472C78.6027 21.9813 78.752 21.416 78.752 20.776C78.752 20.1147 78.6027 19.5387 78.304 19.048C78.0267 18.5573 77.632 18.1733 77.12 17.896C76.608 17.6187 76 17.48 75.296 17.48H71.072V24.04ZM86.5413 37V12.776H91.3413V22.984L90.7653 22.216C91.1706 21.1707 91.8213 20.4027 92.7173 19.912C93.6346 19.4 94.7013 19.144 95.9173 19.144C97.2399 19.144 98.3919 19.4213 99.3733 19.976C100.376 20.5307 101.155 21.3093 101.709 22.312C102.264 23.2933 102.541 24.4453 102.541 25.768V37H97.7413V26.792C97.7413 26.1093 97.6026 25.5227 97.3253 25.032C97.0693 24.5413 96.6959 24.1573 96.2053 23.88C95.7359 23.6027 95.1813 23.464 94.5413 23.464C93.9226 23.464 93.3679 23.6027 92.8773 23.88C92.3866 24.1573 92.0026 24.5413 91.7253 25.032C91.4693 25.5227 91.3413 26.1093 91.3413 26.792V37H86.5413ZM111.97 37.384C110.562 37.384 109.356 37.0853 108.354 36.488C107.372 35.8693 106.626 35.016 106.114 33.928C105.602 32.84 105.346 31.5707 105.346 30.12V19.528H110.146V29.736C110.146 30.3973 110.274 30.984 110.53 31.496C110.807 31.9867 111.191 32.3707 111.682 32.648C112.172 32.9253 112.727 33.064 113.345 33.064C113.986 33.064 114.54 32.9253 115.01 32.648C115.5 32.3707 115.874 31.9867 116.13 31.496C116.407 30.984 116.546 30.3973 116.546 29.736V19.528H121.346V37H116.866V33.544L117.122 34.312C116.716 35.3573 116.055 36.136 115.138 36.648C114.242 37.1387 113.186 37.384 111.97 37.384ZM133.078 37.384C131.371 37.384 129.846 36.9787 128.502 36.168C127.158 35.3573 126.091 34.2587 125.302 32.872C124.534 31.4853 124.15 29.9493 124.15 28.264C124.15 26.5573 124.544 25.0213 125.334 23.656C126.123 22.2693 127.19 21.1707 128.534 20.36C129.878 19.5493 131.382 19.144 133.046 19.144C134.326 19.144 135.456 19.3893 136.438 19.88C137.44 20.3493 138.23 21.0213 138.806 21.896L138.07 22.856V12.776H142.87V37H138.39V33.8L138.838 34.792C138.24 35.6453 137.43 36.296 136.406 36.744C135.382 37.1707 134.272 37.384 133.078 37.384ZM133.654 33.064C134.528 33.064 135.296 32.8613 135.958 32.456C136.619 32.0507 137.131 31.4853 137.494 30.76C137.878 30.0347 138.07 29.2027 138.07 28.264C138.07 27.3253 137.878 26.4933 137.494 25.768C137.131 25.0427 136.619 24.4773 135.958 24.072C135.296 23.6667 134.528 23.464 133.654 23.464C132.779 23.464 131.99 23.6773 131.286 24.104C130.603 24.5093 130.07 25.0747 129.686 25.8C129.302 26.504 129.11 27.3253 129.11 28.264C129.11 29.2027 129.302 30.0347 129.686 30.76C130.07 31.4853 130.603 32.0507 131.286 32.456C131.99 32.8613 132.779 33.064 133.654 33.064ZM152.657 37.384C151.249 37.384 150.044 37.0853 149.041 36.488C148.06 35.8693 147.313 35.016 146.801 33.928C146.289 32.84 146.033 31.5707 146.033 30.12V19.528H150.833V29.736C150.833 30.3973 150.961 30.984 151.217 31.496C151.494 31.9867 151.878 32.3707 152.369 32.648C152.86 32.9253 153.414 33.064 154.033 33.064C154.673 33.064 155.228 32.9253 155.697 32.648C156.188 32.3707 156.561 31.9867 156.817 31.496C157.094 30.984 157.233 30.3973 157.233 29.736V19.528H162.033V37H157.553V33.544L157.809 34.312C157.404 35.3573 156.742 36.136 155.825 36.648C154.929 37.1387 153.873 37.384 152.657 37.384Z" fill="#0F0F0F"/>
</svg>
